# xmcd
#
# Track frame offsets: 
#        182
#        16145
#        27162
#        39252
#        50550
#        64857
#        76435
#        91860
#        106982
#        129150
#        143752
#        156182
#        175450
#        195092
#        208127
#        223530
#
# Disc length: 3157 seconds
#
# Revision: 0
# Processed by: cddbd v1.4PL0 Copyright (c) Steve Scherf et al.
# Submitted via: ExactAudioCopy v0.90b4
#
DISCID=ce0c5310
DTITLE=Don Edwards - Saddle Songs Disc 1
DYEAR=1997
DGENRE=Country
TTITLE0=Ballad of Jack Thorp
TTITLE1=Old Chisholm Trail
TTITLE2=Whoopi Ti Yi Yo
TTITLE3=Pecos River Queen
TTITLE4=Cowboy Jack
TTITLE5=Chopo
TTITLE6=Zebra Dun
TTITLE7=Patonio
TTITLE8=Sam Bass
TTITLE9=Streets of Laredo
TTITLE10=Night Herding Song
TTITLE11=Little Joe the Wrangler
TTITLE12=Little Joe the Wrangler's Sister Nell
TTITLE13=Railroad Corral
TTITLE14=The Pecos Stream
TTITLE15=What's Become of the Punchers
EXTD=
EXTT0=
EXTT1=
EXTT2=
EXTT3=
EXTT4=
EXTT5=
EXTT6=
EXTT7=
EXTT8=
EXTT9=
EXTT10=
EXTT11=
EXTT12=
EXTT13=
EXTT14=
EXTT15=
PLAYORDER=
